HIERARCHY
ROOT Hips
{
	OFFSET 13.171547 88.566324 22.590633
	CHANNELS 6 Xposition Yposition Zposition Zrotation Yrotation Xrotation 
	JOINT Spine
	{
		OFFSET -0.000000 8.814246 -2.080107
		CHANNELS 3 Zrotation Yrotation Xrotation
		JOINT Spine1
		{
			OFFSET 0.000001 8.844141 -0.000000
			CHANNELS 3 Zrotation Yrotation Xrotation
			JOINT Spine2
			{
				OFFSET -0.000000 11.682269 0.000000
				CHANNELS 3 Zrotation Yrotation Xrotation
				JOINT Spine3
				{
					OFFSET -0.000000 11.746700 -0.000001
					CHANNELS 3 Zrotation Yrotation Xrotation
					JOINT Neck
					{
						OFFSET -0.000000 17.658264 0.000000
						CHANNELS 3 Zrotation Yrotation Xrotation
						JOINT Neck1
						{
							OFFSET 0.000000 5.101515 -0.000000
							CHANNELS 3 Zrotation Yrotation Xrotation
							JOINT Head
							{
								OFFSET 0.000000 5.101514 -0.000000
								CHANNELS 3 Zrotation Yrotation Xrotation
								JOINT HeadEnd
								{
									OFFSET -0.000000 11.655084 -0.000001
									CHANNELS 3 Zrotation Yrotation Xrotation
									End Site
									{
										OFFSET 0.000000 0.000000 0.000000
									}
								}
							}
						}
					}
					JOINT RightShoulder
					{
						OFFSET -2.625389 11.175209 -0.000000
						CHANNELS 3 Zrotation Yrotation Xrotation
						JOINT RightArm
						{
							OFFSET 0.000000 10.434716 -0.000000
							CHANNELS 3 Zrotation Yrotation Xrotation
							JOINT RightForeArm
							{
								OFFSET 0.000000 29.628420 -0.000000
								CHANNELS 3 Zrotation Yrotation Xrotation
								JOINT RightHand
								{
									OFFSET 0.000000 22.857611 0.000000
									CHANNELS 3 Zrotation Yrotation Xrotation
									JOINT RightHandThumb1
									{
										OFFSET -2.867323 3.959563 2.944291
										CHANNELS 3 Zrotation Yrotation Xrotation
										JOINT RightHandThumb2
										{
											OFFSET -0.000000 3.350399 0.000001
											CHANNELS 3 Zrotation Yrotation Xrotation
											JOINT RightHandThumb3
											{
												OFFSET 0.000000 3.756509 -0.000000
												CHANNELS 3 Zrotation Yrotation Xrotation
												JOINT RightHandThumb4
												{
													OFFSET 0.000000 3.147345 0.000000
													CHANNELS 3 Zrotation Yrotation Xrotation
													End Site
													{
														OFFSET 0.000000 0.000000 0.000000
													}
												}
											}
										}
									}
									JOINT RightHandIndex1
									{
										OFFSET -0.086752 10.030894 2.345280
										CHANNELS 3 Zrotation Yrotation Xrotation
										JOINT RightHandIndex2
										{
											OFFSET -0.000000 4.061090 0.000001
											CHANNELS 3 Zrotation Yrotation Xrotation
											JOINT RightHandIndex3
											{
												OFFSET 0.000000 3.248873 0.000000
												CHANNELS 3 Zrotation Yrotation Xrotation
												JOINT RightHandIndex4
												{
													OFFSET 0.000000 2.639709 0.000001
													CHANNELS 3 Zrotation Yrotation Xrotation
													End Site
													{
														OFFSET 0.000000 0.000000 0.000000
													}
												}
											}
										}
									}
									JOINT RightHandMiddle1
									{
										OFFSET 0.104102 9.502952 0.006768
										CHANNELS 3 Zrotation Yrotation Xrotation
										JOINT RightHandMiddle2
										{
											OFFSET -0.000000 4.568726 -0.000000
											CHANNELS 3 Zrotation Yrotation Xrotation
											JOINT RightHandMiddle3
											{
												OFFSET -0.000000 3.654981 0.000000
												CHANNELS 3 Zrotation Yrotation Xrotation
												JOINT RightHandMiddle4
												{
													OFFSET 0.000000 2.741236 0.000001
													CHANNELS 3 Zrotation Yrotation Xrotation
													End Site
													{
														OFFSET 0.000000 0.000000 0.000000
													}
												}
											}
										}
									}
									JOINT RightHandRing1
									{
										OFFSET 0.086752 8.921707 -2.267442
										CHANNELS 3 Zrotation Yrotation Xrotation
										JOINT RightHandRing2
										{
											OFFSET -0.000000 4.061090 -0.000000
											CHANNELS 3 Zrotation Yrotation Xrotation
											JOINT RightHandRing3
											{
												OFFSET 0.000000 3.654981 -0.000000
												CHANNELS 3 Zrotation Yrotation Xrotation
												JOINT RightHandRing4
												{
													OFFSET 0.000000 2.741236 0.000000
													CHANNELS 3 Zrotation Yrotation Xrotation
													End Site
													{
														OFFSET 0.000000 0.000000 0.000000
													}
												}
											}
										}
									}
									JOINT RightHandPinky1
									{
										OFFSET -0.173504 7.976997 -4.467199
										CHANNELS 3 Zrotation Yrotation Xrotation
										JOINT RightHandPinky2
										{
											OFFSET -0.000000 3.350399 0.000000
											CHANNELS 3 Zrotation Yrotation Xrotation
											JOINT RightHandPinky3
											{
												OFFSET 0.000001 2.842763 -0.000000
												CHANNELS 3 Zrotation Yrotation Xrotation
												JOINT RightHandPinky4
												{
													OFFSET 0.000000 2.639709 -0.000000
													CHANNELS 3 Zrotation Yrotation Xrotation
													End Site
													{
														OFFSET 0.000000 0.000000 0.000000
													}
												}
											}
										}
									}
									JOINT RightForeArmEnd
									{
										OFFSET 0.000001 0.000000 0.000000
										CHANNELS 3 Zrotation Yrotation Xrotation
										End Site
										{
											OFFSET 0.000000 0.000000 0.000000
										}
									}
								}
								JOINT RightArmEnd
								{
									OFFSET 0.000000 0.000000 0.000000
									CHANNELS 3 Zrotation Yrotation Xrotation
									End Site
									{
										OFFSET 0.000000 0.000000 0.000000
									}
								}
							}
						}
					}
					JOINT LeftShoulder
					{
						OFFSET 2.625389 11.175211 0.000000
						CHANNELS 3 Zrotation Yrotation Xrotation
						JOINT LeftArm
						{
							OFFSET -0.000000 10.813635 -0.000000
							CHANNELS 3 Zrotation Yrotation Xrotation
							JOINT LeftForeArm
							{
								OFFSET 0.000001 28.724781 0.000000
								CHANNELS 3 Zrotation Yrotation Xrotation
								JOINT LeftHand
								{
									OFFSET 0.644384 25.716167 -0.328871
									CHANNELS 3 Zrotation Yrotation Xrotation
									JOINT LeftHandThumb1
									{
										OFFSET 2.867323 3.959563 2.944291
										CHANNELS 3 Zrotation Yrotation Xrotation
										JOINT LeftHandThumb2
										{
											OFFSET -0.000000 3.350399 -0.000001
											CHANNELS 3 Zrotation Yrotation Xrotation
											JOINT LeftHandThumb3
											{
												OFFSET -0.000000 3.756510 -0.000000
												CHANNELS 3 Zrotation Yrotation Xrotation
												JOINT LeftHandThumb4
												{
													OFFSET 0.000000 3.100000 0.000000
													CHANNELS 3 Zrotation Yrotation Xrotation
													End Site
													{
														OFFSET 0.000000 0.000000 0.000000
													}
												}
											}
										}
									}
									JOINT LeftHandIndex1
									{
										OFFSET 0.086753 10.030893 2.345280
										CHANNELS 3 Zrotation Yrotation Xrotation
										JOINT LeftHandIndex2
										{
											OFFSET -0.000001 4.061090 0.000000
											CHANNELS 3 Zrotation Yrotation Xrotation
											JOINT LeftHandIndex3
											{
												OFFSET 0.000000 3.248873 -0.000000
												CHANNELS 3 Zrotation Yrotation Xrotation
												JOINT LeftHandIndex4
												{
													OFFSET -0.000000 2.639709 -0.000000
													CHANNELS 3 Zrotation Yrotation Xrotation
													End Site
													{
														OFFSET 0.000000 0.000000 0.000000
													}
												}
											}
										}
									}
									JOINT LeftHandMiddle1
									{
										OFFSET -0.104102 9.502952 0.006769
										CHANNELS 3 Zrotation Yrotation Xrotation
										JOINT LeftHandMiddle2
										{
											OFFSET 0.000000 4.568727 -0.000000
											CHANNELS 3 Zrotation Yrotation Xrotation
											JOINT LeftHandMiddle3
											{
												OFFSET 0.000000 3.654981 0.000000
												CHANNELS 3 Zrotation Yrotation Xrotation
												JOINT LeftHandMiddle4
												{
													OFFSET -0.000000 2.741236 -0.000000
													CHANNELS 3 Zrotation Yrotation Xrotation
													End Site
													{
														OFFSET 0.000000 0.000000 0.000000
													}
												}
											}
										}
									}
									JOINT LeftHandRing1
									{
										OFFSET -0.086752 8.921708 -2.267442
										CHANNELS 3 Zrotation Yrotation Xrotation
										JOINT LeftHandRing2
										{
											OFFSET 0.000001 4.061090 -0.000000
											CHANNELS 3 Zrotation Yrotation Xrotation
											JOINT LeftHandRing3
											{
												OFFSET 0.000000 3.654981 -0.000000
												CHANNELS 3 Zrotation Yrotation Xrotation
												JOINT LeftHandRing4
												{
													OFFSET -0.000000 2.741236 -0.000000
													CHANNELS 3 Zrotation Yrotation Xrotation
													End Site
													{
														OFFSET 0.000000 0.000000 0.000000
													}
												}
											}
										}
									}
									JOINT LeftHandPinky1
									{
										OFFSET 0.173504 7.976997 -4.467198
										CHANNELS 3 Zrotation Yrotation Xrotation
										JOINT LeftHandPinky2
										{
											OFFSET -0.000000 3.350399 -0.000000
											CHANNELS 3 Zrotation Yrotation Xrotation
											JOINT LeftHandPinky3
											{
												OFFSET -0.000000 2.842763 0.000000
												CHANNELS 3 Zrotation Yrotation Xrotation
												JOINT LeftHandPinky4
												{
													OFFSET -0.000000 2.639709 0.000000
													CHANNELS 3 Zrotation Yrotation Xrotation
													End Site
													{
														OFFSET 0.000000 0.000000 0.000000
													}
												}
											}
										}
									}
									JOINT LeftForeArmEnd
									{
										OFFSET 0.000000 -0.000000 0.000000
										CHANNELS 3 Zrotation Yrotation Xrotation
										End Site
										{
											OFFSET 0.000000 0.000000 0.000000
										}
									}
								}
								JOINT LeftArmEnd
								{
									OFFSET 0.000000 0.000000 0.000000
									CHANNELS 3 Zrotation Yrotation Xrotation
									End Site
									{
										OFFSET 0.000000 0.000000 0.000000
									}
								}
							}
						}
					}
				}
			}
		}
	}
	JOINT RightUpLeg
	{
		OFFSET -11.289943 -0.000000 0.000000
		CHANNELS 3 Zrotation Yrotation Xrotation
		JOINT RightLeg
		{
			OFFSET -0.000000 -38.200325 -0.000000
			CHANNELS 3 Zrotation Yrotation Xrotation
			JOINT RightFoot
			{
				OFFSET -0.000000 -39.900857 0.000000
				CHANNELS 3 Zrotation Yrotation Xrotation
				JOINT RightToeBase
				{
					OFFSET -0.000000 0.000000 15.261641
					CHANNELS 3 Zrotation Yrotation Xrotation
					JOINT RightToeBaseEnd
					{
						OFFSET -0.000000 0.000000 7.370709
						CHANNELS 3 Zrotation Yrotation Xrotation
						End Site
						{
							OFFSET 0.000000 0.000000 0.000000
						}
					}
				}
				JOINT RightLegEnd
				{
					OFFSET 0.000000 0.000000 -0.000000
					CHANNELS 3 Zrotation Yrotation Xrotation
					End Site
					{
						OFFSET 0.000000 0.000000 0.000000
					}
				}
			}
			JOINT RightUpLegEnd
			{
				OFFSET 0.000000 -0.000000 0.000000
				CHANNELS 3 Zrotation Yrotation Xrotation
				End Site
				{
					OFFSET 0.000000 0.000000 0.000000
				}
			}
		}
	}
	JOINT LeftUpLeg
	{
		OFFSET 11.315662 0.000000 -0.000000
		CHANNELS 3 Zrotation Yrotation Xrotation
		JOINT LeftLeg
		{
			OFFSET -0.000000 -38.200325 0.000000
			CHANNELS 3 Zrotation Yrotation Xrotation
			JOINT LeftFoot
			{
				OFFSET -0.000000 -39.900855 0.000000
				CHANNELS 3 Zrotation Yrotation Xrotation
				JOINT LeftToeBase
				{
					OFFSET 0.000000 0.000000 15.261641
					CHANNELS 3 Zrotation Yrotation Xrotation
					JOINT LeftToeBaseEnd
					{
						OFFSET 0.000000 -0.000000 7.539997
						CHANNELS 3 Zrotation Yrotation Xrotation
						End Site
						{
							OFFSET 0.000000 0.000000 0.000000
						}
					}
				}
				JOINT LeftLegEnd
				{
					OFFSET 0.000000 -0.000000 0.000001
					CHANNELS 3 Zrotation Yrotation Xrotation
					End Site
					{
						OFFSET 0.000000 0.000000 0.000000
					}
				}
			}
			JOINT LeftUpLegEnd
			{
				OFFSET -0.000000 -0.000000 0.000000
				CHANNELS 3 Zrotation Yrotation Xrotation
				End Site
				{
					OFFSET 0.000000 0.000000 0.000000
				}
			}
		}
	}
}
MOTION
Frames: 4
Frame Time: 0.016667
13.171547 88.566324 22.590633 -0.332519 -12.290176 -10.739459 -2.912251 0.608763 7.881531 -0.748007 0.170170 2.566803 2.878380 -0.468552 6.437534 3.936131 -0.019110 3.636912 5.616964 0.308737 2.857007 1.655102 1.960250 -3.738896 2.103346 1.541750 -12.394163 0.000012 -0.000003 -0.000005 92.052612 -0.394830 7.840478 62.532120 -22.913132 5.446096 0.024204 6.113615 25.431719 3.807355 18.366951 -7.029187 20.095720 30.039320 61.826324 -8.662172 -12.611959 -21.098980 -6.498957 -8.439506 -14.800876 0.000001 0.000026 0.000007 15.198145 5.963754 0.399742 10.439550 -0.345778 -1.601536 10.442379 0.149192 -1.507956 0.000000 0.000012 0.000000 13.739087 1.086553 -0.140484 9.845509 -0.435328 -0.610268 9.845401 0.054033 -0.522009 0.000021 0.000005 0.000016 15.449961 -7.205684 -0.385788 10.897158 0.929509 0.868357 10.898403 -0.072751 0.675129 -0.000002 0.000001 0.000053 15.566998 -15.783125 -0.926201 10.729897 1.772942 2.497364 10.727488 -0.192434 2.115725 0.000040 0.000005 0.000002 -0.000004 -0.000001 0.000001 -0.000007 0.000003 -0.000003 -89.220100 -0.204983 11.780879 -67.818558 36.321327 0.136800 -0.913009 -11.045990 35.008896 -5.534688 -15.699781 -12.460096 -20.628016 -29.893400 61.348442 9.159983 13.651370 -22.635986 6.910592 9.114163 -15.868704 -0.000011 0.000012 -0.000063 -18.387527 11.818254 0.635764 -13.063263 -0.309974 1.978840 -13.063508 0.180367 1.863993 0.000001 -0.000065 0.000009 -17.588633 6.586156 0.088286 -12.391245 -0.413741 0.761603 -12.390841 0.077742 0.656017 -0.000010 0.000008 -0.000000 -18.835117 -1.280550 1.156551 -13.188811 0.887203 -1.034714 -13.183108 -0.092481 -0.807294 0.000027 0.000007 -0.000002 -19.476404 -9.728708 0.842121 -13.270996 1.664228 -2.922038 -13.266652 -0.295426 -2.476562 0.000011 -0.000002 -0.000002 -0.000055 -0.000008 0.000031 0.000005 -0.000011 -0.000019 -6.244210 4.806825 9.198361 -0.317657 -1.590574 9.368814 2.812541 2.161524 20.469608 -0.730128 1.742826 -21.276264 0.000017 -0.000043 0.000001 -0.000003 -0.000009 0.000057 0.000001 0.000004 0.000005 8.360473 16.857903 17.536779 0.109434 1.423037 3.487487 -4.964282 11.106108 18.173756 1.200563 -2.028605 -18.479052 0.000001 -0.000000 0.000001 -0.000037 0.000006 -0.000004 0.000001 0.000016 0.000008 
13.171547 88.566324 22.590633 -0.332519 -12.290176 -10.739459 -2.912251 0.608763 7.881531 -0.748007 0.170170 2.566803 2.878380 -0.468552 6.437534 3.936131 -0.019110 3.636912 5.616964 0.308737 2.857007 1.655102 1.960250 -3.738896 2.103346 1.541750 -12.394163 0.000012 -0.000003 -0.000005 92.052612 -0.394830 7.840478 62.532120 -22.913132 5.446096 0.024204 6.113615 25.431719 3.807355 18.366951 -7.029187 20.095720 30.039320 61.826324 -8.662172 -12.611959 -21.098980 -6.498957 -8.439506 -14.800876 0.000001 0.000026 0.000007 15.198145 5.963754 0.399742 10.439550 -0.345778 -1.601536 10.442379 0.149192 -1.507956 0.000000 0.000012 0.000000 13.739087 1.086553 -0.140484 9.845509 -0.435328 -0.610268 9.845401 0.054033 -0.522009 0.000021 0.000005 0.000016 15.449961 -7.205684 -0.385788 10.897158 0.929509 0.868357 10.898403 -0.072751 0.675129 -0.000002 0.000001 0.000053 15.566998 -15.783125 -0.926201 10.729897 1.772942 2.497364 10.727488 -0.192434 2.115725 0.000040 0.000005 0.000002 -0.000004 -0.000001 0.000001 -0.000007 0.000003 -0.000003 -89.220100 -0.204983 11.780879 -67.818558 36.321327 0.136800 -0.913009 -11.045990 35.008896 -5.534688 -15.699781 -12.460096 -20.628016 -29.893400 61.348442 9.159983 13.651370 -22.635986 6.910592 9.114163 -15.868704 -0.000011 0.000012 -0.000063 -18.387527 11.818254 0.635764 -13.063263 -0.309974 1.978840 -13.063508 0.180367 1.863993 0.000001 -0.000065 0.000009 -17.588633 6.586156 0.088286 -12.391245 -0.413741 0.761603 -12.390841 0.077742 0.656017 -0.000010 0.000008 -0.000000 -18.835117 -1.280550 1.156551 -13.188811 0.887203 -1.034714 -13.183108 -0.092481 -0.807294 0.000027 0.000007 -0.000002 -19.476404 -9.728708 0.842121 -13.270996 1.664228 -2.922038 -13.266652 -0.295426 -2.476562 0.000011 -0.000002 -0.000002 -0.000055 -0.000008 0.000031 0.000005 -0.000011 -0.000019 -6.244210 4.806825 9.198361 -0.317657 -1.590574 9.368814 2.812541 2.161524 20.469608 -0.730128 1.742826 -21.276264 0.000017 -0.000043 0.000001 -0.000003 -0.000009 0.000057 0.000001 0.000004 0.000005 8.360473 16.857903 17.536779 0.109434 1.423037 3.487487 -4.964282 11.106108 18.173756 1.200563 -2.028605 -18.479052 0.000001 -0.000000 0.000001 -0.000037 0.000006 -0.000004 0.000001 0.000016 0.000008 
13.171547 88.566324 22.590633 -0.332519 -12.290176 -10.739459 -2.912251 0.608763 7.881531 -0.748007 0.170170 2.566803 2.878380 -0.468552 6.437534 3.936131 -0.019110 3.636912 5.616964 0.308737 2.857007 1.655102 1.960250 -3.738896 2.103346 1.541750 -12.394163 0.000012 -0.000003 -0.000005 92.052612 -0.394830 7.840478 62.532120 -22.913132 5.446096 0.024204 6.113615 25.431719 3.807355 18.366951 -7.029187 20.095720 30.039320 61.826324 -8.662172 -12.611959 -21.098980 -6.498957 -8.439506 -14.800876 0.000001 0.000026 0.000007 15.198145 5.963754 0.399742 10.439550 -0.345778 -1.601536 10.442379 0.149192 -1.507956 0.000000 0.000012 0.000000 13.739087 1.086553 -0.140484 9.845509 -0.435328 -0.610268 9.845401 0.054033 -0.522009 0.000021 0.000005 0.000016 15.449961 -7.205684 -0.385788 10.897158 0.929509 0.868357 10.898403 -0.072751 0.675129 -0.000002 0.000001 0.000053 15.566998 -15.783125 -0.926201 10.729897 1.772942 2.497364 10.727488 -0.192434 2.115725 0.000040 0.000005 0.000002 -0.000004 -0.000001 0.000001 -0.000007 0.000003 -0.000003 -89.220100 -0.204983 11.780879 -67.818558 36.321327 0.136800 -0.913009 -11.045990 35.008896 -5.534688 -15.699781 -12.460096 -20.628016 -29.893400 61.348442 9.159983 13.651370 -22.635986 6.910592 9.114163 -15.868704 -0.000011 0.000012 -0.000063 -18.387527 11.818254 0.635764 -13.063263 -0.309974 1.978840 -13.063508 0.180367 1.863993 0.000001 -0.000065 0.000009 -17.588633 6.586156 0.088286 -12.391245 -0.413741 0.761603 -12.390841 0.077742 0.656017 -0.000010 0.000008 -0.000000 -18.835117 -1.280550 1.156551 -13.188811 0.887203 -1.034714 -13.183108 -0.092481 -0.807294 0.000027 0.000007 -0.000002 -19.476404 -9.728708 0.842121 -13.270996 1.664228 -2.922038 -13.266652 -0.295426 -2.476562 0.000011 -0.000002 -0.000002 -0.000055 -0.000008 0.000031 0.000005 -0.000011 -0.000019 -6.244210 4.806825 9.198361 -0.317657 -1.590574 9.368814 2.812541 2.161524 20.469608 -0.730128 1.742826 -21.276264 0.000017 -0.000043 0.000001 -0.000003 -0.000009 0.000057 0.000001 0.000004 0.000005 8.360473 16.857903 17.536779 0.109434 1.423037 3.487487 -4.964282 11.106108 18.173756 1.200563 -2.028605 -18.479052 0.000001 -0.000000 0.000001 -0.000037 0.000006 -0.000004 0.000001 0.000016 0.000008 
11.824455 88.457884 22.606823 -1.019337 -13.016173 -11.173275 -2.569732 0.624271 8.127942 -0.707220 0.131645 2.478721 3.355424 -0.888165 6.769757 4.254822 -0.106581 3.687651 5.604918 0.430706 2.977972 1.599620 2.141156 -3.693597 1.937852 1.519347 -12.428963 0.000011 -0.000003 -0.000005 92.316032 -0.417789 7.822333 61.619465 -22.714336 5.369419 0.046774 6.267674 25.818735 3.844288 18.880432 -7.011568 20.156918 30.023441 61.770676 -8.716599 -12.731690 -21.274324 -6.545198 -8.517662 -14.923404 0.000001 0.000026 0.000006 15.618470 5.881186 0.320012 10.745678 -0.339784 -1.642537 10.749040 0.154285 -1.546671 0.000000 0.000011 0.000000 14.154108 1.014443 -0.189056 10.136731 -0.433764 -0.625975 10.136578 0.055013 -0.535951 0.000020 0.000004 0.000016 15.830634 -7.271469 -0.366751 11.180684 0.926003 0.887340 11.182060 -0.075878 0.690062 -0.000002 0.000001 0.000053 15.875949 -15.835356 -0.874702 10.962000 1.764785 2.539359 10.959742 -0.198622 2.150767 0.000039 0.000005 0.000002 -0.000004 -0.000001 0.000000 -0.000005 0.000003 -0.000002 -89.474197 -0.160935 11.954080 -67.650108 36.276531 0.798741 -0.906844 -11.367419 34.852180 -5.382211 -15.536201 -12.273168 -20.657551 -29.886646 61.323742 9.183161 13.707108 -22.716219 6.931145 9.151336 -15.925644 -0.000009 0.000011 -0.000062 -18.623796 11.860386 0.595349 -13.244227 -0.304462 2.007700 -13.244348 0.185589 1.891262 0.000001 -0.000064 0.000008 -17.826223 6.629818 0.080376 -12.576033 -0.409427 0.772617 -12.575755 0.081658 0.664963 -0.000009 0.000008 -0.000001 -19.104645 -1.235484 1.177088 -13.393749 0.882292 -1.049950 -13.387969 -0.096256 -0.819122 0.000027 0.000006 -0.000001 -19.751244 -9.687722 0.886286 -13.459233 1.651101 -2.961254 -13.454772 -0.307085 -2.509632 0.000010 -0.000002 -0.000002 -0.000054 -0.000007 0.000031 0.000004 -0.000011 -0.000018 -4.778913 5.109898 9.954745 -0.300779 -1.474049 9.446761 2.161085 2.108241 19.996080 -0.583628 1.711946 -20.972715 0.000016 -0.000042 0.000001 -0.000003 -0.000008 0.000057 0.000001 0.000003 0.000005 10.431536 16.776831 18.655895 0.130139 1.561142 3.510452 -6.297898 11.213353 17.686102 1.398865 -2.137645 -18.224178 0.000002 -0.000000 0.000001 -0.000038 0.000005 -0.000005 0.000001 0.000015 0.000008 
